# AST/ASF file generated using VICON BodyLanguage
# -----------------------------------------------
:version 1.10
:name VICON
:units
  mass 1.0
  length 0.45
  angle deg
:documentation
   .ast/.asf automatically generated from VICON data using
   VICON BodyBuilder and BodyLanguage model FoxedUp or BRILLIANT.MOD
:root
   order TX TY TZ RX RY RZ
   axis XYZ
   position 0 0 0  
   orientation 0 0 0 
:bonedata
  begin
     id 1 
     name lhipjoint
     direction 0.710188 -0.616876 0.339259 
     length 2.5669 
     axis 0 0 0  XYZ
  end
  begin
     id 2 
     name lfemur
     direction 0.34202 -0.939693 0  
     length 7.12796  
     axis 0 0 20  XYZ
    dof rx ry rz
    limits (-160.0 20.0)
           (-70.0 70.0)
           (-60.0 70.0)
  end
  begin
     id 3 
     name ltibia
     direction 0.34202 -0.939693 0   
     length 7.58108   
     axis 0 0 20   XYZ
    dof rx
    limits (-10.0 170.0)
  end
  begin
     id 4 
     name lfoot
     direction 0.0669471 -0.183936 0.980656   
     length 2.17365   
     axis -90 7.62852e-016 20   XYZ
    dof rx rz
    limits (-45.0 90.0)
           (-70.0 20.0)
  end
  begin
     id 5 
     name ltoes
     direction 1.53508e-011 -4.21705e-011 1   
     length 1.09427   
     axis -90 7.62852e-016 20   XYZ
    dof rx
    limits (-90.0 20.0)
  end
  begin
     id 6 
     name rhipjoint
     direction -0.700191 -0.625589 0.34405   
     length 2.53115  
     axis 0 0 0  XYZ 
  end
  begin
     id 7 
     name rfemur
     direction -0.34202 -0.939693 0   
     length 7.33006   
     axis 0 0 -20   XYZ
    dof rx ry rz
    limits (-160.0 20.0)
           (-70.0 70.0)
           (-70.0 60.0)
  end
  begin
     id 8 
     name rtibia
     direction -0.34202 -0.939693 0   
     length 7.64926   
     axis 0 0 -20   XYZ
    dof rx
    limits (-10.0 170.0)
 end
 begin
     id 9 
     name rfoot
     direction -0.0688927 -0.189281 0.979503   
     length 2.20493  
     axis -90 -7.62852e-016 -20   XYZ
    dof rx rz
    limits (-45.0 90.0)
           (-20.0 70.0)
  end
  begin
     id 10 
     name rtoes
     direction -1.53567e-011 -4.21933e-011 1   
     length 1.10919   
     axis -90 -7.62852e-016 -20   XYZ
    dof rx
    limits (-90.0 20.0)
  end
  begin
     id 11 
     name lowerback
     direction -0.0167868 0.989873 -0.140959   
     length 2.14596   
     axis 0 0 0   XYZ
    dof rx ry rz
    limits (-20.0 45.0)
           (-30.0 30.0)
           (-30.0 30.0)
  end
  begin
     id 12 
     name upperback
     direction 0.0129109 0.998033 0.0613525   
     length 2.10457   
     axis 0 0 0   XYZ
    dof rx ry rz
    limits (-20.0 45.0)
           (-30.0 30.0)
           (-30.0 30.0)
  end
  begin
     id 13 
     name thorax
     direction 0.0177047 0.991119 0.131797   
     length 2.17652   
     axis 0 0 0   XYZ
    dof rx ry rz
    limits (-20.0 45.0)
           (-30.0 30.0)
           (-30.0 30.0)
  end
  begin
     id 14 
     name lowerneck
     direction -0.0336893 0.997548 0.0613464   
     length 1.8912   
     axis 0 0 0   XYZ
    dof rx ry rz
    limits (-20.0 45.0)
           (-30.0 30.0)
           (-30.0 30.0)
  end
  begin
     id 15 
     name upperneck
     direction 0.0435909 0.997179 -0.0611028   
     length 1.8829   
     axis 0 0 0   XYZ
    dof rx ry rz
    limits (-20.0 45.0)
           (-30.0 30.0)
           (-30.0 30.0)
  end
  begin
     id 16
     name head
     direction 0.0175076 0.999444 -0.0283782  
     length 1.93197  
     axis 0 0 0   XYZ
    dof rx ry rz
    limits (-20.0 45.0)
           (-30.0 30.0)
           (-30.0 30.0)
  end
  begin
     id 17 
     name lclavicle
     direction 0.919164 0.389875 0.0559876  
     length 3.60004  
     axis 0 0 0   XYZ
    dof ry rz
    limits (-20.0 10.0)
           (0.0 20.0)
  end
  begin
     id 18 
     name lhumerus
     direction 1 -4.48958e-011 6.89191e-027   
     length 5.43301   
     axis 180 -30 -90   XYZ
    dof rx ry rz
    limits (-60.0 90.0)
           (-90.0 90.0)
           (-90.0 90.0)
  end
  begin
     id 19
     name lradius
     direction 1 -4.4897e-011 3.24727e-027   
     length 3.15936   
     axis 180 -30 -90   XYZ
    dof rx
    limits (-10.0 170.0)
  end
  begin
     id 20
     name lwrist
     direction 1 -4.4897e-011 9.00228e-027   
     length 1.57968   
     axis -6.29373e-015 90 90   XYZ
    dof ry
    limits (-180.0 0.0)
 end
  begin
     id 21 
     name lhand
     direction 1 -4.48968e-011 1.80042e-026   
     length 0.712827   
     axis -1.14882e-014 90 90   XYZ
    dof rx rz
    limits (-90.0 90.0)
           (-45.0 45.0)
  end
  begin
     id 22 
     name lfingers
     direction 1 -4.49019e-011 3.60267e-026   
     length 0.574699   
     axis -2.29769e-014 90 90   XYZ
    dof rx
    limits (0.0 90.0)
  end
  begin
     id 23
     name lthumb
     direction 0.707107 -6.3498e-011 0.707107   
     length 0.825157   
     axis -90 45 5.37419e-014   XYZ
    dof rx rz
    limits (-45.0 45.0)
           (-45.0 45.0)
  end
  begin
     id 24 
     name rclavicle
     direction -0.890334 0.455305 -0.00132111   
     length 3.51494  
     axis 0 0 0   XYZ 
    dof ry rz
    limits (-10.0 20.0)
           (-20.0 0.0)
  end
  begin
     id 25 
     name rhumerus
     direction -1 -4.48967e-011 5.07175e-028  
     length 5.34194   
     axis 180 30 90   XYZ
    dof rx ry rz
    limits (-90.0 60.0)
           (-90.0 90.0)
           (-90.0 90.0)
  end
  begin
     id 26 
     name rradius
     direction -1 -4.48955e-011 3.30467e-027   
     length 3.19351   
     axis 180 30 90   XYZ
    dof rx
    limits (-10.0 170.0)
  end
  begin
     id 27 
     name rwrist
     direction -1 -4.48968e-011 9.00208e-027   
     length 1.59676   
     axis -6.29373e-015 -90 -90   XYZ
    dof ry
    limits (-180.0 0.0)
  end
  begin
     id 28
     name rhand
     direction -1 -4.49e-011 1.80099e-026   
     length 0.743862   
     axis -1.14882e-014 -90 -90   XYZ
    dof rx rz
    limits (-90.0 90.0)
           (-45.0 45.0)
  end
  begin
     id 29
     name rfingers
     direction -1 -4.49009e-011 3.6023e-026   
     length 0.599721   
     axis -2.29769e-014 -90 -90   XYZ
    dof rx
    limits (0.0 90.0)
  end
  begin
     id 30
     name rthumb
     direction -0.707107 -6.35025e-011 0.707107   
     length 0.861083   
     axis -90 -45 -5.37419e-014   XYZ
    dof rx rz
    limits (-45.0 45.0)
           (-45.0 45.0)
  end
:hierarchy
  begin
    root lhipjoint rhipjoint lowerback
    lhipjoint lfemur
    lfemur ltibia
    ltibia lfoot
    lfoot ltoes
    rhipjoint rfemur
    rfemur rtibia
    rtibia rfoot
    rfoot rtoes
    lowerback upperback
    upperback thorax
    thorax lowerneck lclavicle rclavicle
    lowerneck upperneck
    upperneck head
    lclavicle lhumerus
    lhumerus lradius
    lradius lwrist
    lwrist lhand lthumb
    lhand lfingers
    rclavicle rhumerus
    rhumerus rradius
    rradius rwrist
    rwrist rhand rthumb
    rhand rfingers
  end

#!OML:ASF H:\Martial Arts Walks\Project 1\Capture day 1\Session 1\male.ASF
:FULLY-SPECIFIED
:DEGREES
258
root -2.62455 14.1068 -20.4605 3.27937 23.5648 9.37218
lowerback 15.3373 0.443058 -14.5954
upperback -0.170836 -2.08828 -0.794989
thorax -8.38915 -0.395443 7.8513
lowerneck 0.932485 -10.0515 -9.88214
upperneck 4.64123 -13.8226 9.18496
head 2.55424 -6.91015 3.90485
rclavicle -2.41585e-014 -9.79014e-015
rhumerus -30.1303 15.1434 -70.2515
rradius 52.0205
rwrist 8.7992
rhand -4.24934 -42.0874
rfingers 7.12502
rthumb 21.5145 -70.9126
lclavicle -2.41585e-014 -9.79014e-015
lhumerus -23.301 -9.56798 87.344
lradius 32.9608
lwrist -7.91864
lhand -22.1208 27.3853
lfingers 7.12502
lthumb 4.29214 57.3218
rfemur -60.7129 -26.0428 7.66043
rtibia 71.2562
rfoot -6.26587 14.7447
rtoes 9.50352
lfemur 13.9617 9.301 -11.1316
ltibia 38.9044
lfoot -29.1871 31.183
ltoes -22.5449
259
root -2.62036 14.1071 -20.4551 3.21532 23.6772 9.27426
lowerback 15.4713 0.421001 -14.4028
upperback -0.163127 -2.10502 -0.793675
thorax -8.45751 -0.406656 7.75259
lowerneck 0.795469 -10.0499 -9.91303
upperneck 4.70754 -13.8117 9.16353
head 2.59576 -6.90179 3.89419
rclavicle 1.3741e-014 2.55935e-014
rhumerus -30.163 15.0297 -70.292
rradius 51.9047
rwrist 8.88121
rhand -4.54108 -42.1239
rfingers 7.12502
rthumb 21.2343 -70.9808
lclavicle 1.3741e-014 2.55935e-014
lhumerus -23.3454 -9.74097 87.4469
lradius 33.0571
lwrist -7.878
lhand -22.219 27.3587
lfingers 7.12502
lthumb 4.19729 57.2971
rfemur -60.6087 -26.1487 7.71977
rtibia 71.2715
rfoot -6.37603 14.7311
rtoes 9.25648
lfemur 13.956 9.22291 -11.0282
ltibia 38.972
lfoot -29.1697 31.207
ltoes -22.6639
260
root -2.61695 14.1084 -20.4511 3.19725 23.7109 9.12209
lowerback 15.5357 0.414309 -14.2033
upperback -0.200933 -2.09056 -0.769109
thorax -8.54443 -0.399401 7.66766
lowerneck 0.794504 -10.0248 -9.96006
upperneck 4.7261 -13.7781 9.15555
head 2.60087 -6.88595 3.9002
rclavicle 1.03368e-014 -3.46134e-014
rhumerus -30.1928 14.929 -70.3299
rradius 51.7378
rwrist 8.9591
rhand -4.39112 -41.9651
rfingers 7.12502
rthumb 21.3783 -70.8057
lclavicle 1.03368e-014 -3.46134e-014
lhumerus -23.3544 -9.84691 87.5549
lradius 32.9999
lwrist -8.02936
lhand -22.5209 26.7014
lfingers 7.12502
lthumb 3.90572 56.6453
rfemur -60.6025 -26.1543 7.87275
rtibia 71.255
rfoot -6.38413 14.703
rtoes 9.17654
lfemur 13.8742 9.20143 -10.8971
ltibia 39.0664
lfoot -29.3294 31.13
ltoes -22.4623
261
root -2.61253 14.1086 -20.4464 3.15264 23.779 9.08217
lowerback 15.6959 0.40931 -14.0821
upperback -0.224865 -2.10487 -0.77368
thorax -8.66249 -0.401404 7.60351
lowerneck 0.733154 -9.994 -10.0577
upperneck 4.77596 -13.7381 9.22235
head 2.63314 -6.86471 3.93175
rclavicle -6.61518e-014 1.97294e-014
rhumerus -30.2103 14.8392 -70.3674
rradius 51.5763
rwrist 9.04398
rhand -4.39044 -41.9348
rfingers 7.12502
rthumb 21.379 -70.7754
lclavicle -6.61518e-014 1.97294e-014
lhumerus -23.3747 -9.89733 87.6456
lradius 32.9616
lwrist -8.11062
lhand -22.5973 26.7315
lfingers 7.12502
lthumb 3.83196 56.6768
rfemur -60.5117 -26.2168 7.86822
rtibia 71.2546
rfoot -6.43138 14.6899
rtoes 9.11623
lfemur 13.8624 9.14266 -10.8713
ltibia 39.148
lfoot -29.3783 31.1539
ltoes -22.4243
262
root -2.60843 14.1112 -20.4434 3.06846 23.8469 8.94226
lowerback 15.8616 0.402043 -13.8554
upperback -0.241059 -2.10057 -0.758206
thorax -8.78125 -0.399289 7.49841
lowerneck 0.663453 -9.98044 -10.1376
upperneck 4.81122 -13.7175 9.25442
head 2.66064 -6.85334 3.94923
rclavicle -2.32516e-014 -2.86995e-014
rhumerus -30.2541 14.7214 -70.4052
rradius 51.4576
rwrist 9.04071
rhand -4.3345 -41.8159
rfingers 7.12502
rthumb 21.4327 -70.6504
lclavicle -2.32516e-014 -2.86995e-014
lhumerus -23.3886 -9.94312 87.7352
lradius 32.9719
lwrist -8.12574
lhand -22.5368 26.6963
lfingers 7.12502
lthumb 3.89036 56.6405
rfemur -60.3962 -26.2553 7.97219
rtibia 71.2238
rfoot -6.47909 14.6556
rtoes 8.96105
lfemur 13.8355 9.0965 -10.7429
ltibia 39.2473
lfoot -29.4204 31.1742
ltoes -22.344
263
root -2.60465 14.1144 -20.4399 2.99877 23.9363 8.7926
lowerback 16.0053 0.373615 -13.6333
upperback -0.273766 -2.12157 -0.735728
thorax -8.89995 -0.408447 7.40874
lowerneck 0.616183 -9.96884 -10.0776
upperneck 4.85889 -13.6916 9.10265
head 2.66532 -6.84083 3.89362
rclavicle -4.20554e-015 -2.60408e-014
rhumerus -30.2933 14.6536 -70.4605
rradius 51.2971
rwrist 9.03928
rhand -4.2394 -41.7934
rfingers 7.12502
rthumb 21.524 -70.6175
lclavicle -4.20554e-015 -2.60408e-014
lhumerus -23.4308 -9.97917 87.814
lradius 33.0497
lwrist -7.8862
lhand -22.1785 27.6215
lfingers 7.12502
lthumb 4.2364 57.5591
rfemur -60.2966 -26.3074 8.08529
rtibia 71.1998
rfoot -6.5209 14.6163
rtoes 8.87887
lfemur 13.7978 9.03031 -10.608
ltibia 39.3157
lfoot -29.4643 31.1723
ltoes -22.27
264
root -2.59977 14.1179 -20.4401 2.93308 23.9314 8.61631
lowerback 16.1417 0.380788 -13.3689
upperback -0.307418 -2.08541 -0.710676
thorax -9.02965 -0.391702 7.28517
lowerneck 0.512742 -9.95053 -10.1213
upperneck 4.94751 -13.6608 9.06826
head 2.70612 -6.8239 3.88373
rclavicle -3.09328e-014 -6.33626e-015
rhumerus -30.3383 14.5637 -70.4918
rradius 51.1784
rwrist 8.98318
rhand -4.21184 -41.8281
rfingers 7.12502
rthumb 21.5505 -70.6491
lclavicle -3.09328e-014 -6.33626e-015
lhumerus -23.4423 -9.97943 87.9006
lradius 33.0331
lwrist -7.83794
lhand -22.2238 27.7928
lfingers 7.12502
lthumb 4.19268 57.7312
rfemur -60.2544 -26.2659 8.24625
rtibia 71.1448
rfoot -6.4679 14.5857
rtoes 8.82655
lfemur 13.7444 9.03861 -10.48
ltibia 39.3846
lfoot -29.4408 31.2355
ltoes -22.2779
265
root -2.59483 14.1214 -20.4375 2.8496 24.072 8.56567
lowerback 16.3403 0.345177 -13.1996
upperback -0.310495 -2.13259 -0.718111
thorax -9.14024 -0.413915 7.19908
lowerneck 0.476571 -9.92426 -10.1835
upperneck 4.94072 -13.6252 9.12791
head 2.71487 -6.80532 3.91077
rclavicle 6.32384e-015 3.57812e-015
rhumerus -30.3795 14.4567 -70.5557
rradius 51.0688
rwrist 8.96167
rhand -4.28745 -41.7584
rfingers 7.12502
rthumb 21.4779 -70.5877
lclavicle 6.32384e-015 3.57812e-015
lhumerus -23.4404 -9.96254 87.956
lradius 32.9485
lwrist -8.07601
lhand -22.6393 27.258
lfingers 7.12502
lthumb 3.79142 57.204
rfemur -60.0773 -26.3992 8.22129
rtibia 71.1136
rfoot -6.50492 14.5923
rtoes 8.76616
lfemur 13.7729 8.90746 -10.4438
ltibia 39.4079
lfoot -29.3711 31.3104
ltoes -22.2763
266
root -2.5899 14.1252 -20.4359 2.79679 24.14 8.48578
lowerback 16.4986 0.324942 -13.0137
upperback -0.330957 -2.14975 -0.712686
thorax -9.2544 -0.421533 7.11024
lowerneck 0.439406 -9.89053 -10.3256
upperneck 4.93704 -13.5835 9.26154
head 2.73459 -6.78364 3.97155
rclavicle 9.36773e-015 2.26615e-014
rhumerus -30.3891 14.4018 -70.5868
rradius 50.9331
rwrist 8.90193
rhand -4.11366 -41.8132
rfingers 7.12502
rthumb 21.6448 -70.6233
lclavicle 9.36773e-015 2.26615e-014
lhumerus -23.4415 -9.93167 88.0164
lradius 32.8795
lwrist -8.17461
lhand -22.743 26.8149
lfingers 7.12502
lthumb 3.6913 56.7627
rfemur -59.9708 -26.46 8.25713
rtibia 71.0648
rfoot -6.50305 14.6091
rtoes 8.71981
lfemur 13.7775 8.84877 -10.3885
ltibia 39.4114
lfoot -29.2997 31.3815
ltoes -22.3158
267
root -2.58461 14.129 -20.4346 2.73976 24.1757 8.43221
lowerback 16.6385 0.315301 -12.855
upperback -0.3447 -2.15527 -0.720504
thorax -9.35295 -0.424249 7.01856
lowerneck 0.421397 -9.89727 -10.237
upperneck 4.90188 -13.58 9.10675
head 2.70999 -6.78301 3.91309
rclavicle 1.62227e-014 2.23633e-015
rhumerus -30.4109 14.3605 -70.6416
rradius 50.8071
rwrist 8.79554
rhand -4.01337 -41.894
rfingers 7.12502
rthumb 21.7411 -70.693
lclavicle 1.62227e-014 2.23633e-015
lhumerus -23.4659 -9.92997 88.0736
lradius 32.9414
lwrist -8.01858
lhand -22.53 27.353
lfingers 7.12502
lthumb 3.89702 57.2971
rfemur -59.8643 -26.4875 8.25902
rtibia 71.0207
rfoot -6.48773 14.6172
rtoes 8.67513
lfemur 13.8429 8.80804 -10.3585
ltibia 39.3644
lfoot -29.3591 31.3306
ltoes -22.3009
268
root -2.57976 14.1335 -20.4331 2.67403 24.2056 8.37319
lowerback 16.7906 0.311521 -12.6791
upperback -0.355071 -2.15131 -0.735197
thorax -9.45746 -0.423347 6.90765
lowerneck 0.397338 -9.88246 -10.2536
upperneck 4.87649 -13.5562 9.10243
head 2.7048 -6.77103 3.91506
rclavicle 4.2102e-014 3.19795e-014
rhumerus -30.4597 14.2686 -70.6976
rradius 50.72
rwrist 8.75186
rhand -3.81027 -42.0199
rfingers 7.12502
rthumb 21.9361 -70.7962
lclavicle 4.2102e-014 3.19795e-014
lhumerus -23.4729 -9.97621 88.1248
lradius 32.9091
lwrist -8.02379
lhand -22.5643 27.4462
lfingers 7.12502
lthumb 3.86381 57.3909
rfemur -59.7355 -26.4936 8.26286
rtibia 70.9597
rfoot -6.49545 14.6041
rtoes 8.70881
lfemur 13.9181 8.78091 -10.3125
ltibia 39.3011
lfoot -29.3534 31.2942
ltoes -22.285
